<?xml version="1.0" encoding="utf-8"?>
<!-- Generator: Adobe Illustrator 19.0.0, SVG Export Plug-In . SVG Version: 6.00 Build 0)  -->
<svg version="1.1" id="Layer_1" xmlns="http://www.w3.org/2000/svg" xmlns:xlink="http://www.w3.org/1999/xlink" x="0px" y="0px"
	 viewBox="0 0 300 300" style="enable-background:new 0 0 300 300;" xml:space="preserve">
<style type="text/css">
	.st0{fill:#C6C6C6;}
	.st1{fill:#262A6F;}
	.st2{fill:#FF7300;}
	.st3{fill:#FFFFFF;}
	.st4{fill:#D8D8D8;}
</style>
<rect class="st0" width="300" height="300"/>
<g id="XMLID_14_">
	<polygon id="XMLID_16_" class="st1" points="133.5,53.7 115.9,25 134.3,28.3 146.6,8 157.7,28.6 175.3,23.9 159.6,53.7 	"/>
	<path id="XMLID_8_" class="st2" d="M147.6,83.5h-2.2c-7.2,0-13.1-5.9-13.1-13.1V59.1c0-7.2,5.9-13.1,13.1-13.1h2.2
		c7.2,0,13.1,5.9,13.1,13.1v11.3C160.7,77.6,154.8,83.5,147.6,83.5z"/>
	<g id="XMLID_9_">
		<path id="XMLID_10_" class="st1" d="M150,55.4c-42.1,0-78.9,22.3-99.3,55.8c-2.3,3.7-4.4,7.6-6.2,11.6
			c-6.9,14.9-10.8,31.5-10.8,48.9C33.7,235.9,85.8,288,150,288s116.3-52.1,116.3-116.3S214.2,55.4,150,55.4z"/>
		<path id="XMLID_4_" class="st1" d="M138,104.5"/>
		<path id="XMLID_6_" class="st3" d="M51.3,171.7"/>
		<path id="XMLID_7_" class="st3" d="M75,163.2"/>
		<g id="XMLID_12_">
			<path id="XMLID_13_" class="st3" d="M245.1,193c0-14.3-11.7-26-26-26L150,177l-22.4-3.2l-52.6,1l-17.9,8
				c-1.4,3.1-2.1,6.6-2.1,10.2l0,0c0,4.1,1,7.9,2.6,11.4C61.8,213,70.7,219,81,219l50.2,7.3L150,229l19.3-2.8l-0.2,0.1l50.2-7.3
				c0.2,0,0.4,0,0.6,0c0.2,0,0.4,0,0.6,0c9.7-0.5,18.1-6.3,22.1-14.6l-0.3,0.1C244.1,201.1,245.1,197.2,245.1,193L245.1,193z"/>
			<path id="XMLID_15_" class="st4" d="M127.6,173.8L80.9,167c-10.7,0-19.9,6.5-23.9,15.8l17.9-8L127.6,173.8z"/>
			<path id="XMLID_11_" class="st4" d="M172.7,173.8l46.6-6.8c10.7,0,19.9,6.5,23.9,15.8l-17.9-8L172.7,173.8z"/>
		</g>
		<circle id="XMLID_2_" class="st1" cx="202.5" cy="193" r="12.5"/>
		<circle id="XMLID_3_" class="st1" cx="97.5" cy="193" r="12.5"/>
	</g>
	<path id="XMLID_203_" class="st2" d="M145.8,117.4l-7.7-13.3l-14.6,25.2l-7.7,13.4l-4.6,7.9h6.3c5.7,0,10.9-3,13.7-7.9h15.3v-13.4
		H139L145.8,117.4z M129.5,144.7L129.5,144.7L129.5,144.7L129.5,144.7z"/>
	<path id="XMLID_199_" class="st2" d="M181.9,137.6c0-0.1-0.1-0.1-0.1-0.2l-16-27.8l0,0L158,96.2l5.6-9.8h-4.1c-7,0-13.5,3.7-17,9.8
		l0,0l7.7,13.3l4.7,8.1l3.7,6.4l0,0l3,5.2h-7.4v13.3h3.7h11.4h9.3C181.3,142.6,183,139.9,181.9,137.6z"/>
</g>
</svg>
